<?xml version="1.0"?>
<svg xmlns="http://www.w3.org/2000/svg" xmlns:xlink="http://www.w3.org/1999/xlink" version="1.1" id="Layer_1" x="0px" y="0px" viewBox="0 0 481.882 481.882" style="enable-background:new 0 0 481.882 481.882;" xml:space="preserve" width="512px" height="512px" class=""><g><path style="fill:#EDDB68" d="M60.235,28.913C60.235,12.943,73.178,0,89.148,0h212.028l120.471,101.188v351.782  c0,15.97-12.943,28.913-28.913,28.913H89.148c-15.97,0-28.913-12.943-28.913-28.913V28.913z" data-original="#FF8000" class="" data-old_color="#FF8000"/><path style="fill:#0B0B0A" d="M301.176,0v72.282c0,15.97,12.943,28.913,28.913,28.913h91.558" data-original="#FC6100" class="" data-old_color="#EDDB68"/><g>
	<path style="fill:#000000" d="M163.546,235.791h58.88v76.83c0,29.515-19.878,43.987-53.617,53.323l-5.865-17.769   c25.299-7.838,34.485-16.73,34.485-34.492v-59.648h-33.882V235.791z" data-original="#FFFFFF" class="active-path" data-old_color="#050404"/>
	<path style="fill:#000000" d="M284.326,342.739c-18.982,0-33.129-6.618-41.72-15.059l12.642-14.005   c7.688,6.761,17.032,10.526,28.16,10.526c10.248,0,17.175-4.661,17.175-12.649c0-7.529-4.367-10.835-18.824-15.368   c-23.959-7.529-33.144-17.016-33.144-32.678c0-19.283,17.777-30.426,39.469-30.426c15.812,0,28.16,4.969,37.195,13.553   l-11.746,13.568c-7.085-5.88-15.368-8.749-23.499-8.749c-9.336,0-15.526,3.471-15.526,10.104c0,6.626,4.668,9.186,20.631,14.306   c19.885,6.468,31.488,14.6,31.488,33.732C326.648,329.178,310.679,342.739,284.326,342.739z" data-original="#FFFFFF" class="active-path" data-old_color="#050404"/>
</g></g> </svg>
