<svg id="Layer_1" data-name="Layer 1" xmlns="http://www.w3.org/2000/svg" viewBox="0 0 1000 936.55"><title>jack</title><path d="M558.78,469.32c-2.89,61.58-9.32,127.33-37.55,195.84-1.13,2.75-2.54,6-4.27,9.6a282,282,0,0,1-97.74,113.17c-16.73,11.27-32.58,21.66-37.54,24-24.12,11.41-66.08,30.8-123.22,34.34-22.76,1.44-97.31,5-166.9-39.5-14-9-39.47-25.65-60.64-57.1a183.47,183.47,0,0,1-27.5-65.43c0-.32-.14-.63-.19-.94-.32-1.47-.57-2.91-.82-4.33-.2-1.13-.4-2.27-.54-3.34,0-.26-.09-.51-.14-.79a6.83,6.83,0,0,1-.12-.77c-.08-.48-.17-1-.22-1.5s-.12-.73-.17-1.13c-.32-2.27-.54-4.36-.74-6.31a10.49,10.49,0,0,1-.06-1.68c-.36-4.81-.48-9.4-.39-13.64H203.68a92.56,92.56,0,0,0,10.79,14.38l.34.34c9.57,9,22.45,19.39,35.53,24.72,26.64,10.81,54.53,10.78,87.29-5C595.55,560.12,412.43,71.45,413.19,61c.2-2.52,1.11-17.72,11.27-5.72,14.38,17,56.74,88.67,75.45,129.36,15.15,32.9,34.23,85.5,43.12,122.76C551,341,562.29,394.86,558.78,469.32Z" style="fill:#231f20"/><path d="M231.91,479.4c-14.47,9.06-53.09,53.29-41.88,117.9a225.76,225.76,0,0,0,6.57,27.94H4.56c7.24-38.6,14.58-82.7,80.66-123.36C146,464.48,247.93,469.38,231.91,479.4Z" style="fill:#231f20"/><path d="M1000,269.72a2.5,2.5,0,0,1-2.52,2.49c-111.86-.17-138.79,1.11-138.79,1.11-119,5.74-157.27,22.19-183.49,55.06C597.85,425.21,629.61,610.21,630.29,614v.15C641.45,725,683,789.4,695.55,807.66c5.55,8.1,41.62,59.74,84.6,78.12,40.35,17.21,70.13,18.63,70.13,18.63,3.68.19,6.23.16,6.32.79.53,3.76-75.15,46.2-165.07,25.85-34-7.7-73-30.13-102.18-51.39-21.77-15.88-44-36.78-57.3-55.44-11.95-16.73-39.19-49.91-35.19-58.07,3.79-7.78,21-32.84,22-34.45a254.81,254.81,0,0,0,16.45-27.32c.46-.94,1-1.87,1.42-2.86,18.74-39,31.34-80.5,39.24-123.79a1.29,1.29,0,0,0,.06-.36c.39-2,.76-4,1.07-6q2.39-13.8,4.14-27.88.42-3.4.7-7c2.5-21.8,4-43.2,5-64.13,4-77.38-6.93-133.49-14.69-168.4-8.64-38.79-27.41-93.57-42.33-127.89-12.91-29.64-39.61-74.18-59-104.56a2.65,2.65,0,0,1-.23-.39c-1.78-3-4.39-6.94-6.94-10.71-.08-.11-.14-.22-.22-.34-2.07-3-4.05-5.94-5.52-8.26a2.16,2.16,0,0,0-.34-.51c-1.42-2.3-2.69-4.16-4.76-7-.68-1-1.3-1.81-1.81-2.54-1.7-2.58-2.13-5.24.48-7l10-4.05a4.74,4.74,0,0,1,1.33-.62A592.46,592.46,0,0,1,549.15,9.73C607.67.41,791.59-26.34,909,83.45c12.28,11.5,69.65,65.23,83.35,125.2C997.9,233.11,999.92,254.23,1000,269.72Z" style="fill:#231f20"/><path d="M997.56,307.66c-.82,8.69-25.77,95.82-110.65,155.58-106.6,75-230.61,39.45-230.61,39.45-5.21-1.73-4.19-15.22-2.83-42.68,2.07-42.1,21.72-87.2,25.57-94.31,6-11.13,14.81-22.76,21.72-28.88,14.83-13.11,37.85-21.71,58.89-25.71,95.58-18.14,144.59-15.4,164.86-15.2,22,.23,54.16-.62,72.51,4.08C998.55,300.38,997.87,304.35,997.56,307.66Z" style="fill:#231f20"/></svg>